<?xml version="1.0" standalone="no"?><!DOCTYPE svg PUBLIC "-//W3C//DTD SVG 1.1//EN" "http://www.w3.org/Graphics/SVG/1.1/DTD/svg11.dtd"><svg t="1583377115194" class="icon" viewBox="0 0 1024 1024" version="1.1" xmlns="http://www.w3.org/2000/svg" p-id="3843" xmlns:xlink="http://www.w3.org/1999/xlink" width="200" height="200"><defs><style type="text/css"></style></defs><path d="M860.623336 163.952284C765.50565 68.834598 639.039627 16.450726 504.521985 16.450726S243.538321 68.834598 148.420635 163.952284C53.301942 259.070977 0.91807 385.536999 0.91807 520.054641c0 134.517642 52.383872 260.983664 147.502565 356.10135 95.117686 95.118693 221.584716 147.502565 356.10135 147.502565s260.982657-52.383872 356.10135-147.502565 147.502565-221.584716 147.502565-356.10135C1008.125901 385.536999 955.742029 259.070977 860.623336 163.952284zM504.521985 993.762614c-261.203236 0-473.707973-212.504737-473.707973-473.707973 0-261.203236 212.504737-473.707973 473.707973-473.707973 261.202228 0 473.706965 212.504737 473.706965 473.707973C978.228951 781.257877 765.725221 993.762614 504.521985 993.762614zM527.678701 291.862642c-12.789525-12.789525-33.524913-12.789525-46.314438 0L318.465519 454.761386c-12.789525 12.789525-12.789525 33.524913 0 46.31343l0 0c12.789525 12.789525 33.524913 12.789525 46.314438 0l71.59334-71.59334c2.922917-1.846212 8.717384-4.694596 15.605678-3.780051 13.109817 1.741462 15.762803 15.008404 15.762803 15.008404l0 202.963457c0 2.767807 2.244059 5.011866 5.011866 5.011866l63.536684 0c2.767807 0 5.011866-2.244059 5.011866-5.011866L541.302194 440.711844c0 0 2.652985-13.267949 15.762803-15.008404 6.887287-0.914545 12.681754 1.932832 15.604671 3.779044l71.59334 71.59334c12.789525 12.789525 33.524913 12.789525 46.314438 0l0 0c12.789525-12.789525 12.789525-33.524913 0-46.314438L527.678701 291.862642zM536.290328 711.426143l-63.536684 0c-2.767807 0-5.011866 2.244059-5.011866 5.011866l0 73.762866c0 2.768814 2.244059 5.011866 5.011866 5.011866l63.536684 0c2.767807 0 5.011866-2.244059 5.011866-5.011866l0-73.762866C541.302194 713.670202 539.058135 711.426143 536.290328 711.426143z" p-id="3844" fill="#d4237a"></path></svg>